# This file uses centimeters as units for non-parametric coordinates.

mtllib chest.mtl
g default
v -1.751633 -1.312504 2.511058
v 1.751633 -1.312504 2.511058
v -1.751633 1.312504 2.511058
v 1.751633 1.312504 2.511058
v -1.751633 1.312504 -2.511058
v 1.751633 1.312504 -2.511058
v -1.751633 -1.312504 -2.511058
v 1.751633 -1.312504 -2.511058
vt 0.375000 0.000000
vt 0.625000 0.000000
vt 0.375000 0.250000
vt 0.625000 0.250000
vt 0.375000 0.500000
vt 0.625000 0.500000
vt 0.375000 0.750000
vt 0.625000 0.750000
vt 0.375000 1.000000
vt 0.625000 1.000000
vt 0.875000 0.000000
vt 0.875000 0.250000
vt 0.125000 0.000000
vt 0.125000 0.250000
vn 0.000000 0.000000 1.000000
vn 0.000000 0.000000 1.000000
vn 0.000000 0.000000 1.000000
vn 0.000000 0.000000 1.000000
vn 0.000000 1.000000 0.000000
vn 0.000000 1.000000 0.000000
vn 0.000000 1.000000 0.000000
vn 0.000000 1.000000 0.000000
vn 0.000000 0.000000 -1.000000
vn 0.000000 0.000000 -1.000000
vn 0.000000 0.000000 -1.000000
vn 0.000000 0.000000 -1.000000
vn 0.000000 -1.000000 0.000000
vn 0.000000 -1.000000 0.000000
vn 0.000000 -1.000000 0.000000
vn 0.000000 -1.000000 0.000000
vn 1.000000 0.000000 0.000000
vn 1.000000 0.000000 0.000000
vn 1.000000 0.000000 0.000000
vn 1.000000 0.000000 0.000000
vn -1.000000 0.000000 0.000000
vn -1.000000 0.000000 0.000000
vn -1.000000 0.000000 0.000000
vn -1.000000 0.000000 0.000000
s off
g pCube1 group1
usemtl initialShadingGroup
f 1/1/1 2/2/2 4/4/3 3/3/4
f 3/3/5 4/4/6 6/6/7 5/5/8
f 5/5/9 6/6/10 8/8/11 7/7/12
f 7/7/13 8/8/14 2/10/15 1/9/16
f 2/2/17 8/11/18 6/12/19 4/4/20
f 7/13/21 1/1/22 3/3/23 5/14/24
g default
v -1.545884 1.380672 2.511058
v 1.556953 3.007102 2.511058
v -1.743872 1.758385 2.511058
v 1.358965 3.384814 2.511058
v -1.743872 1.758385 -2.511058
v 1.358965 3.384814 -2.511058
v -1.545884 1.380672 -2.511058
v 1.556953 3.007102 -2.511058
v -0.511606 1.922815 2.511058
v -0.511606 1.922815 -2.511058
v -1.009023 2.871765 -2.511058
v -1.009023 2.871765 2.511058
v 0.522673 2.464958 2.511058
v 0.522673 2.464958 -2.511058
v 0.025257 3.413909 -2.511058
v 0.025257 3.413909 2.511058
vt 0.375000 0.000000
vt 0.625000 0.000000
vt 0.375000 0.250000
vt 0.625000 0.250000
vt 0.375000 0.500000
vt 0.625000 0.500000
vt 0.375000 0.750000
vt 0.625000 0.750000
vt 0.375000 1.000000
vt 0.625000 1.000000
vt 0.875000 0.000000
vt 0.875000 0.250000
vt 0.125000 0.000000
vt 0.125000 0.250000
vt 0.458333 0.000000
vt 0.458333 1.000000
vt 0.458333 0.750000
vt 0.458333 0.500000
vt 0.458333 0.250000
vt 0.541667 0.000000
vt 0.541667 1.000000
vt 0.541667 0.750000
vt 0.541667 0.500000
vt 0.541667 0.250000
vn 0.000000 0.000000 1.000000
vn 0.000000 0.000000 1.000000
vn 0.000000 0.000000 1.000000
vn 0.000000 0.000000 1.000000
vn -0.211747 0.977324 0.000000
vn -0.211747 0.977324 0.000000
vn 0.021809 0.999762 0.000000
vn 0.021809 0.999762 0.000000
vn 0.000000 0.000000 -1.000000
vn 0.000000 0.000000 -1.000000
vn 0.000000 0.000000 -1.000000
vn 0.000000 0.000000 -1.000000
vn 0.464261 -0.885698 0.000000
vn 0.464261 -0.885698 0.000000
vn 0.464261 -0.885698 0.000000
vn 0.464261 -0.885698 0.000000
vn 0.885698 0.464261 0.000000
vn 0.885698 0.464261 0.000000
vn 0.885698 0.464261 0.000000
vn 0.885698 0.464261 0.000000
vn -0.885698 -0.464261 0.000000
vn -0.885698 -0.464261 0.000000
vn -0.885698 -0.464261 0.000000
vn -0.885698 -0.464261 0.000000
vn 0.464261 -0.885698 0.000000
vn 0.464261 -0.885698 0.000000
vn 0.464261 -0.885698 0.000000
vn 0.464261 -0.885698 0.000000
vn 0.000000 0.000000 -1.000000
vn 0.000000 0.000000 -1.000000
vn 0.000000 0.000000 -1.000000
vn 0.000000 0.000000 -1.000000
vn -0.834603 0.550852 0.000000
vn -0.683274 0.730162 0.000000
vn -0.683274 0.730162 0.000000
vn -0.834603 0.550852 0.000000
vn 0.000000 0.000000 1.000000
vn 0.000000 0.000000 1.000000
vn 0.000000 0.000000 1.000000
vn 0.000000 0.000000 1.000000
s 1
g group1 pCube2
usemtl initialShadingGroup
f 24/38/25 21/34/26 10/16/27 12/18/28
s 2
f 23/37/29 24/38/30 12/18/31 14/20/32
s 3
f 22/36/33 23/37/34 14/20/35 16/22/36
s 4
f 21/35/37 22/36/38 16/22/39 10/24/40
s off
f 10/16/41 16/25/42 14/26/43 12/18/44
f 15/27/45 9/15/46 11/17/47 13/28/48
s 4
f 15/21/49 18/31/50 17/30/51 9/23/52
s 3
f 13/19/53 19/32/54 18/31/55 15/21/56
s 2
f 11/17/57 20/33/58 19/32/59 13/19/60
s 1
f 9/15/61 17/29/62 20/33/63 11/17/64
s 4
f 17/30/51 18/31/50 22/36/38 21/35/37
s 3
f 18/31/55 19/32/54 23/37/34 22/36/33
s 2
f 19/32/59 20/33/58 24/38/30 23/37/29
s 1
f 20/33/63 17/29/62 21/34/26 24/38/25
g default
v 0.941908 0.582338 0.129161
v 1.941908 0.582338 0.129161
v 0.941908 1.116093 0.129161
v 1.941908 1.116093 0.129161
v 0.941908 1.116093 -0.129161
v 1.941908 1.116093 -0.129161
v 0.941908 0.582338 -0.129161
v 1.941908 0.582338 -0.129161
vt 0.375000 0.000000
vt 0.625000 0.000000
vt 0.375000 0.250000
vt 0.625000 0.250000
vt 0.375000 0.500000
vt 0.625000 0.500000
vt 0.375000 0.750000
vt 0.625000 0.750000
vt 0.375000 1.000000
vt 0.625000 1.000000
vt 0.875000 0.000000
vt 0.875000 0.250000
vt 0.125000 0.000000
vt 0.125000 0.250000
vn 0.000000 0.000000 1.000000
vn 0.000000 0.000000 1.000000
vn 0.000000 0.000000 1.000000
vn 0.000000 0.000000 1.000000
vn 0.000000 1.000000 0.000000
vn 0.000000 1.000000 0.000000
vn 0.000000 1.000000 0.000000
vn 0.000000 1.000000 0.000000
vn 0.000000 0.000000 -1.000000
vn 0.000000 0.000000 -1.000000
vn 0.000000 0.000000 -1.000000
vn 0.000000 0.000000 -1.000000
vn 0.000000 -1.000000 0.000000
vn 0.000000 -1.000000 0.000000
vn 0.000000 -1.000000 0.000000
vn 0.000000 -1.000000 0.000000
vn 1.000000 0.000000 0.000000
vn 1.000000 0.000000 0.000000
vn 1.000000 0.000000 0.000000
vn 1.000000 0.000000 0.000000
vn -1.000000 0.000000 0.000000
vn -1.000000 0.000000 0.000000
vn -1.000000 0.000000 0.000000
vn -1.000000 0.000000 0.000000
s off
g group1 pCube3
usemtl blinn1SG
f 25/39/65 26/40/66 28/42/67 27/41/68
f 27/41/69 28/42/70 30/44/71 29/43/72
f 29/43/73 30/44/74 32/46/75 31/45/76
f 31/45/77 32/46/78 26/48/79 25/47/80
f 26/40/81 32/49/82 30/50/83 28/42/84
f 31/51/85 25/39/86 27/41/87 29/52/88
